HIERARCHY
ROOT hip
{
  OFFSET 0 0 0
  CHANNELS 6 Xposition Yposition Zposition Zrotation Yrotation Xrotation
  JOINT abdomen
  {
    OFFSET 0 20.6881 -0.73152
    CHANNELS 3 Zrotation Xrotation Yrotation
    JOINT chest
    {
      OFFSET 0 11.7043 -0.48768
      CHANNELS 3 Zrotation Xrotation Yrotation
      JOINT neck
      {
        OFFSET 0 22.1894 -2.19456
        CHANNELS 3 Zrotation Xrotation Yrotation
        JOINT head
        {
          OFFSET -0.24384 7.07133 1.2192
          CHANNELS 3 Zrotation Xrotation Yrotation
          JOINT leftEye
          {
            OFFSET 4.14528 8.04674 8.04672
            CHANNELS 3 Zrotation Xrotation Yrotation
            End Site
            {
              OFFSET 1 0 0
            }
          }
          JOINT rightEye
          {
            OFFSET -3.6576 8.04674 8.04672
            CHANNELS 3 Zrotation Xrotation Yrotation
            End Site
            {
              OFFSET 1 0 0
            }
          }
        }
      }
      JOINT rCollar
      {
        OFFSET -2.68224 19.2634 -4.8768
        CHANNELS 3 Zrotation Xrotation Yrotation
        JOINT rShldr
        {
          OFFSET -8.77824 -1.95073 1.46304
          CHANNELS 3 Zrotation Xrotation Yrotation
          JOINT rForeArm
          {
            OFFSET -28.1742 -1.7115 0.48768
            CHANNELS 3 Zrotation Xrotation Yrotation
            JOINT rHand
            {
              OFFSET -22.5879 0.773209 7.07136
              CHANNELS 3 Zrotation Xrotation Yrotation
              JOINT rThumb1
              {
                OFFSET -1.2192 -0.487915 3.41376
                CHANNELS 3 Zrotation Xrotation Yrotation
                JOINT rThumb2
                {
                  OFFSET -3.37035 -0.52449 3.41376
                  CHANNELS 3 Zrotation Xrotation Yrotation
                  End Site
                  {
                    OFFSET -1.78271 -1.18214 1.43049
                  }
                }
              }
              JOINT rIndex1
              {
                OFFSET -7.75947 0.938293 5.60832
                CHANNELS 3 Zrotation Xrotation Yrotation
                JOINT rIndex2
                {
                  OFFSET -2.54057 -0.884171 1.56538
                  CHANNELS 3 Zrotation Xrotation Yrotation
                  End Site
                  {
                    OFFSET -1.62519 -0.234802 1.16502
                  }
                }
              }
              JOINT rMid1
              {
                OFFSET -8.24714 1.18213 3.41376
                CHANNELS 3 Zrotation Xrotation Yrotation
                JOINT rMid2
                {
                  OFFSET -3.10165 -0.590103 1.0647
                  CHANNELS 3 Zrotation Xrotation Yrotation
                  End Site
                  {
                    OFFSET -2.48547 -0.328903 0.83742
                  }
                }
              }
              JOINT rRing1
              {
                OFFSET -8.82822 0.546677 1.51678
                CHANNELS 3 Zrotation Xrotation Yrotation
                JOINT rRing2
                {
                  OFFSET -2.60934 -0.819778 -0.0198488
                  CHANNELS 3 Zrotation Xrotation Yrotation
                  End Site
                  {
                    OFFSET -2.33842 -0.294052 0.168128
                  }
                }
              }
              JOINT rPinky1
              {
                OFFSET -8.27202 -0.0477905 -0.4584
                CHANNELS 3 Zrotation Xrotation Yrotation
                JOINT rPinky2
                {
                  OFFSET -1.82734 -0.647385 -0.700984
                  CHANNELS 3 Zrotation Xrotation Yrotation
                  End Site
                  {
                    OFFSET -1.69225 -0.51767 -0.607171
                  }
                }
              }
            }
          }
        }
      }
      JOINT lCollar
      {
        OFFSET 2.68224 19.2634 -4.8768
        CHANNELS 3 Zrotation Xrotation Yrotation
        JOINT lShldr
        {
          OFFSET 8.77824 -1.95073 1.46304
          CHANNELS 3 Zrotation Xrotation Yrotation
          JOINT lForeArm
          {
            OFFSET 28.1742 -1.7115 0.48768
            CHANNELS 3 Zrotation Xrotation Yrotation
            JOINT lHand
            {
              OFFSET 22.5879 0.773209 7.07136
              CHANNELS 3 Zrotation Xrotation Yrotation
              JOINT lThumb1
              {
                OFFSET 1.2192 -0.487915 3.41376
                CHANNELS 3 Zrotation Xrotation Yrotation
                JOINT lThumb2
                {
                  OFFSET 3.37035 -0.52449 3.41376
                  CHANNELS 3 Zrotation Xrotation Yrotation
                  End Site
                  {
                    OFFSET 1.78271 -1.18214 1.43049
                  }
                }
              }
              JOINT lIndex1
              {
                OFFSET 7.75947 0.938293 5.60832
                CHANNELS 3 Zrotation Xrotation Yrotation
                JOINT lIndex2
                {
                  OFFSET 2.54057 -0.884171 1.56538
                  CHANNELS 3 Zrotation Xrotation Yrotation
                  End Site
                  {
                    OFFSET 1.62519 -0.234802 1.16502
                  }
                }
              }
              JOINT lMid1
              {
                OFFSET 8.24714 1.18213 3.41376
                CHANNELS 3 Zrotation Xrotation Yrotation
                JOINT lMid2
                {
                  OFFSET 3.10165 -0.590103 1.0647
                  CHANNELS 3 Zrotation Xrotation Yrotation
                  End Site
                  {
                    OFFSET 2.48547 -0.328903 0.83742
                  }
                }
              }
              JOINT lRing1
              {
                OFFSET 8.82822 0.546677 1.51678
                CHANNELS 3 Zrotation Xrotation Yrotation
                JOINT lRing2
                {
                  OFFSET 2.60934 -0.819778 -0.0198488
                  CHANNELS 3 Zrotation Xrotation Yrotation
                  End Site
                  {
                    OFFSET 2.33842 -0.294052 0.168128
                  }
                }
              }
              JOINT lPinky1
              {
                OFFSET 8.27202 -0.0477905 -0.4584
                CHANNELS 3 Zrotation Xrotation Yrotation
                JOINT lPinky2
                {
                  OFFSET 1.82734 -0.647385 -0.700984
                  CHANNELS 3 Zrotation Xrotation Yrotation
                  End Site
                  {
                    OFFSET 1.69225 -0.51767 -0.607171
                  }
                }
              }
            }
          }
        }
      }
    }
  }
  JOINT rButtock
  {
    OFFSET -8.77824 4.35084 1.2192
    CHANNELS 3 Zrotation Xrotation Yrotation
    JOINT rThigh
    {
      OFFSET 0 -1.70687 -2.19456
      CHANNELS 3 Zrotation Xrotation Yrotation
      JOINT rShin
      {
        OFFSET 0 -36.8199 0.73152
        CHANNELS 3 Zrotation Xrotation Yrotation
        JOINT rFoot
        {
          OFFSET 0.73152 -45.1104 -5.12064
          CHANNELS 3 Zrotation Xrotation Yrotation
          End Site
          {
            OFFSET -1.1221 -3.69964 12.103
          }
        }
      }
    }
  }
  JOINT lButtock
  {
    OFFSET 8.77824 4.35084 1.2192
    CHANNELS 3 Zrotation Xrotation Yrotation
    JOINT lThigh
    {
      OFFSET 0 -1.70687 -2.19456
      CHANNELS 3 Zrotation Xrotation Yrotation
      JOINT lShin
      {
        OFFSET 0 -36.8199 0.73152
        CHANNELS 3 Zrotation Xrotation Yrotation
        JOINT lFoot
        {
          OFFSET -0.73152 -45.1104 -5.12064
          CHANNELS 3 Zrotation Xrotation Yrotation
          End Site
          {
            OFFSET 1.1221 -3.69964 12.103
          }
        }
      }
    }
  }
}
MOTION
Frames:	4
Frame Time:	0.03333
-1.006500005722046 56.597999572753906 -0.7350000143051147 -16.48099958896637 -63.22260081768036 -347.75099515914917 11.749800145626068 33.33780080080032 -8.16443033516407 3.842260055243969 -14.2296002805233 -0.8623880334198475 -6.679509803652763 13.501800298690796 -7.5781698524951935 7.2336602210998535 -33.736401200294495 -12.862499803304672 0.0 0.0 0.0 0.0 0.0 0.0 0.0 0.0 0.0 -2.372120004147291 -2.508239932358265 72.99370050430298 -28.59129935503006 -35.52250027656555 75.25860071182251 -3.5453200712800026 -45.97749888896942 -8.356159999966621 -1.4030376860318938e-09 -6.3795368987484835e-09 -1.7291768017457798e-09 -2.3635493562323973e-09 -1.103501290344866e-08 -3.00815372611396e-09 -1.4030376860318938e-09 -6.3795368987484835e-09 -1.7291768017457798e-09 7.7309102565050125 5.474880114197731 0.41731400415301323 -1.4030376860318938e-09 -6.3795368987484835e-09 -1.7291768017457798e-09 2.905540131032467 0.9651830233633518 0.102901995414868 -1.4030376860318938e-09 -6.3795368987484835e-09 -1.7291768017457798e-09 10.27859978377819 0.7318009994924068 0.025912300043273717 -1.4030376860318938e-09 -6.3795368987484835e-09 -1.7291768017457798e-09 2.221670038998127 -0.733487019315362 -0.2089200052432716 0.0 0.0 0.0 -2.2132200747728348 21.132100224494934 -104.44799780845642 23.805299699306488 -19.06139999628067 -44.75039899349213 0.7365829590708017 22.579101026058197 -3.3946798369288445 2.916067387559451e-10 1.800799509510398e-09 -2.9058355721645057e-09 4.501998773775995e-10 3.0465230338450056e-09 -5.0033577281283215e-09 2.916067387559451e-10 1.800799509510398e-09 -2.9058355721645057e-09 -7.7309102565050125 5.474880114197731 -0.41731400415301323 2.916067387559451e-10 1.800799509510398e-09 -2.9058355721645057e-09 -2.905540131032467 0.9651830233633518 -0.102901995414868 2.916067387559451e-10 1.800799509510398e-09 -2.9058355721645057e-09 -10.27859978377819 0.7318009994924068 -0.025912300043273717 2.916067387559451e-10 1.800799509510398e-09 -2.9058355721645057e-09 -2.221670038998127 -0.733487019315362 0.2089200052432716 0.0 0.0 0.0 -15.870999544858932 -75.95359861850739 -14.74570021033287 -4.833509959280491 78.9020973443985 4.6536098420619965 -0.49504500813782215 7.8510598093271255 -16.590099781751633 0.0 0.0 0.0 -1.298859966918826 -57.04099953174591 -2.994389981031418 176.66600346565247 64.44339752197266 -177.87699937820435 7.714930325746536 -10.18079973757267 16.48559957742691
-2.1334999799728394 54.96590042114258 -1.24099999666214 -16.223000586032867 -63.62410068511963 -346.16499423980713 11.848199665546417 34.03460115194321 -8.894480019807816 4.109789952635765 -14.685299545526505 -1.0301600396633148 -6.6738201677799225 13.74239981174469 -7.548400014638901 8.230499848723412 -35.52700102329254 -12.513599395751953 0.0 0.0 0.0 0.0 0.0 0.0 0.0 0.0 0.0 -5.568539835512638 -2.7392500452697277 77.30100095272064 -28.05060088634491 -39.738900661468506 83.97800087928772 -3.765540160238743 -46.9415009021759 -8.65295983850956 -1.5027978861326119e-09 -4.929177066514967e-09 -1.1254996934439987e-09 -2.5490010102657834e-09 -8.464269285468617e-09 -1.984972186619416e-09 -1.5027978861326119e-09 -4.929177066514967e-09 -1.1254996934439987e-09 7.7309102565050125 5.474880114197731 0.41731400415301323 -1.5027978861326119e-09 -4.929177066514967e-09 -1.1254996934439987e-09 2.905540131032467 0.9651830233633518 0.102901995414868 -1.5027978861326119e-09 -4.929177066514967e-09 -1.1254996934439987e-09 10.27859978377819 0.7318009994924068 0.025912300043273717 -1.5027978861326119e-09 -4.929177066514967e-09 -1.1254996934439987e-09 2.221670038998127 -0.733487019315362 -0.2089200052432716 0.0 0.0 0.0 -9.210939779877663 15.702000260353088 -106.47300124168396 15.701399445533752 -8.143659979104996 -31.063598692417145 1.4689900539815426 33.892698884010315 -5.2963801100850105 -1.816147232602816e-10 6.164668775454629e-10 4.092726157978177e-11 -3.0183855415089056e-10 1.0666667549230624e-09 7.16227077646181e-11 -1.816147232602816e-10 6.164668775454629e-10 4.092726157978177e-11 -7.7309102565050125 5.474880114197731 -0.41731400415301323 -1.816147232602816e-10 6.164668775454629e-10 4.092726157978177e-11 -2.905540131032467 0.9651830233633518 -0.102901995414868 -1.816147232602816e-10 6.164668775454629e-10 4.092726157978177e-11 -10.27859978377819 0.7318009994924068 -0.025912300043273717 -1.816147232602816e-10 6.164668775454629e-10 4.092726157978177e-11 -2.221670038998127 -0.733487019315362 0.2089200052432716 0.0 0.0 0.0 -16.69300004839897 -79.57359910011292 -16.957799792289734 -6.989260017871857 81.92399740219116 6.869709938764572 -0.6555100064724684 8.2105603069067 -17.67799973487854 0.0 0.0 0.0 -10.169000029563904 -64.5460993051529 -5.732950195670128 176.6539978981018 64.45349872112274 -177.7709984779358 7.759760096669197 -10.250999853014946 16.759199649095535
-3.3792999982833862 53.857398986816406 -1.5149999856948853 -17.53700003027916 -65.42989790439606 -343.9659905433655 11.175600215792656 35.29089957475662 -8.826720044016838 4.254540055990219 -15.100100487470627 -1.024620020762086 -7.171589881181717 13.802500069141388 -7.513289898633957 8.432759866118431 -37.57219880819321 -12.341200411319733 0.0 0.0 0.0 0.0 0.0 0.0 0.0 0.0 0.0 -9.01929996907711 -3.046800009906292 82.54910230636597 -27.20030039548874 -43.605999648571014 90.56430459022522 -3.3636899292469025 -45.067301988601685 -8.097560182213783 -9.78417347141658e-10 -5.023821358918212e-09 -2.148681232938543e-09 -1.6063950170064345e-09 -8.515428362443345e-09 -3.7550762499449775e-09 -9.78417347141658e-10 -5.023821358918212e-09 -2.148681232938543e-09 7.7309102565050125 5.474880114197731 0.41731400415301323 -9.78417347141658e-10 -5.023821358918212e-09 -2.148681232938543e-09 2.905540131032467 0.9651830233633518 0.102901995414868 -9.78417347141658e-10 -5.023821358918212e-09 -2.148681232938543e-09 10.27859978377819 0.7318009994924068 0.025912300043273717 -9.78417347141658e-10 -5.023821358918212e-09 -2.148681232938543e-09 2.221670038998127 -0.733487019315362 -0.2089200052432716 0.0 0.0 0.0 -22.513301074504852 17.029700428247452 -107.19700455665588 9.804800301790237 -4.094529859721661 -17.82140001654625 4.533760026097298 50.85769772529602 -9.79609988629818 1.51814560922503e-09 2.588649294921197e-09 3.0593128030886874e-09 2.7498003873915877e-09 4.601758973876713e-09 5.1875304052373394e-09 1.51814560922503e-09 2.588649294921197e-09 3.0593128030886874e-09 -7.7309102565050125 5.474880114197731 -0.41731400415301323 1.51814560922503e-09 2.588649294921197e-09 3.0593128030886874e-09 -2.905540131032467 0.9651830233633518 -0.102901995414868 1.51814560922503e-09 2.588649294921197e-09 3.0593128030886874e-09 -10.27859978377819 0.7318009994924068 -0.025912300043273717 1.51814560922503e-09 2.588649294921197e-09 3.0593128030886874e-09 -2.221670038998127 -0.733487019315362 0.2089200052432716 0.0 0.0 0.0 -13.483799993991852 -82.58480250835419 -14.861999452114105 -10.696500018239021 84.4886988401413 10.626800134778023 -0.8420490100979805 8.403179794549942 -18.72730001807213 0.0 0.0 0.0 -24.065101146697998 -69.11629915237427 -14.067600220441818 176.33099555969238 67.60180056095123 -177.3699975013733 7.921569719910622 -9.53032985329628 18.2320998609066
-4.690899968147278 53.11709976196289 -1.80799999833107 -20.926999747753143 -68.06759834289551 -341.0730028152466 10.347800105810165 36.74820005893707 -8.077809736132622 3.903230018913746 -15.512299686670303 -0.9083839785307646 -7.362260073423386 13.881000280380249 -7.432810217142105 8.62370029091835 -38.448500633239746 -12.10779994726181 0.0 0.0 0.0 0.0 0.0 0.0 0.0 0.0 0.0 -11.75670012831688 -0.5802620155736804 86.84139847755432 -26.006800532341003 -46.036802530288696 96.00880265235901 -3.1127800047397614 -43.770499527454376 -7.738010063767433 -1.1728218396456214e-09 -5.04684294355684e-09 -1.7598722479306161e-09 -1.9593926481320523e-09 -8.592166977905435e-09 -3.0900082492735237e-09 -1.1728218396456214e-09 -5.04684294355684e-09 -1.7598722479306161e-09 7.7309102565050125 5.474880114197731 0.41731400415301323 -1.1728218396456214e-09 -5.04684294355684e-09 -1.7598722479306161e-09 2.905540131032467 0.9651830233633518 0.102901995414868 -1.1728218396456214e-09 -5.04684294355684e-09 -1.7598722479306161e-09 10.27859978377819 0.7318009994924068 0.025912300043273717 -1.1728218396456214e-09 -5.04684294355684e-09 -1.7598722479306161e-09 2.221670038998127 -0.733487019315362 -0.2089200052432716 0.0 0.0 0.0 -28.186299204826355 17.92380005121231 -107.50800132751465 7.318839803338051 -2.4363200180232525 -13.305800557136536 5.310889855027199 52.92960226535797 -10.688700154423714 8.364509085367899e-10 1.7828938325692434e-09 3.0797764338785782e-09 1.57442059389723e-09 3.212790034012869e-09 5.248921297607012e-09 8.364509085367899e-10 1.7828938325692434e-09 3.0797764338785782e-09 -7.7309102565050125 5.474880114197731 -0.41731400415301323 8.364509085367899e-10 1.7828938325692434e-09 3.0797764338785782e-09 -2.905540131032467 0.9651830233633518 -0.102901995414868 8.364509085367899e-10 1.7828938325692434e-09 3.0797764338785782e-09 -10.27859978377819 0.7318009994924068 -0.025912300043273717 8.364509085367899e-10 1.7828938325692434e-09 3.0797764338785782e-09 -2.221670038998127 -0.733487019315362 0.2089200052432716 0.0 0.0 0.0 -9.213200211524963 -84.49380040168762 -12.314700186252594 -17.45589941740036 86.47669851779938 17.42180049419403 -1.1225300375372171 8.15315030515194 -19.676500260829926 0.0 0.0 0.0 -33.479198813438416 -72.24320232868195 -19.204100221395493 175.96900463104248 70.33529877662659 -176.99299693107605 9.461739733815193 -7.935059890151024 23.541099429130554
